# xmcd CD database file
#
# Track frame offsets:
#	150
#	17920
#	39482
#	58892
#	77170
#	90435
#	111867
#	132337
#	146010
#	168665
#	186320
#
# Disc length: 2778 seconds
#
# Revision: 3
# Processed by: cddbd v1.5.2PL0 Copyright (c) Steve Scherf et al.
# Submitted via: CDex 1.60beta1
#
DISCID=9a0ad80b
DTITLE=짹챔쨉쩔쨌체 - 첨횓횜횣
DYEAR=2004
DGENRE=Pop
TTITLE0=쨈횢쩍횄 쨋째쨀짧쨘쨍쨀쨩쨈횢
TTITLE1=쨩챌쨋청횉횕횁철 쩐횎?쨍쨈횕짹챤쩔채
TTITLE2=?횑횁짝쩌짯쩐횩
TTITLE3=쩔책쩍횋?챦?횑
TTITLE4=River
TTITLE5=?횥횉창
TTITLE6=쩐챌쨘쨍
TTITLE7=쩍횇짹창쨌챌
TTITLE8=Deja-vu
TTITLE9=횄쨩쩔첩
TTITLE10=째챠쨘째
EXTD=YEAR: 2004
EXTT0=
EXTT1=
EXTT2=
EXTT3=
EXTT4=
EXTT5=
EXTT6=
EXTT7=
EXTT8=
EXTT9=
EXTT10=
PLAYORDER=
